HIERARCHY
ROOT RootJoint
{
    OFFSET   0.000000   0.000000   0.000000
    CHANNELS 6 Xposition Yposition Zposition Xrotation Yrotation Zrotation
    JOINT pelvis_lowerback
    {
        OFFSET   0.000000   0.093605   0.000000
        CHANNELS 3 Xrotation Yrotation Zrotation
        JOINT lowerback_torso
        {
            OFFSET   0.000000   0.100000   0.000000
            CHANNELS 3 Xrotation Yrotation Zrotation
            JOINT torso_head
            {
                OFFSET   0.000000   0.282350   0.000000
                CHANNELS 3 Xrotation Yrotation Zrotation
                End Site
                {
                    OFFSET   0.000000   0.192650   0.000000
                }
            }
            JOINT rTorso_Clavicle
            {
                OFFSET  -0.001000   0.157500   0.000000
                CHANNELS 3 Xrotation Yrotation Zrotation
                JOINT rShoulder
                {
                    OFFSET  -0.117647   0.000000   0.000000
                    CHANNELS 3 Xrotation Yrotation Zrotation
                    JOINT rElbow
                    {
                        OFFSET  -0.245000   0.000000   0.000000
                        CHANNELS 3 Xrotation Yrotation Zrotation
                        JOINT rWrist
                        {
                            OFFSET  -0.240000   0.000000   0.000000
                            CHANNELS 3 Xrotation Yrotation Zrotation
                            End Site
                            {
                                OFFSET  -0.116353  -0.002500   0.000000
                            }
                        }
                    }
                }
            }
            JOINT lTorso_Clavicle
            {
                OFFSET   0.001000   0.157500   0.000000
                CHANNELS 3 Xrotation Yrotation Zrotation
                JOINT lShoulder
                {
                    OFFSET   0.117647   0.000000   0.000000
                    CHANNELS 3 Xrotation Yrotation Zrotation
                    JOINT lElbow
                    {
                        OFFSET   0.245000   0.000000   0.000000
                        CHANNELS 3 Xrotation Yrotation Zrotation
                        JOINT lWrist
                        {
                            OFFSET   0.240000   0.000000   0.000000
                            CHANNELS 3 Xrotation Yrotation Zrotation
                            End Site
                            {
                                OFFSET   0.116353  -0.002500   0.000000
                            }
                        }
                    }
                }
            }
        }
    }
    JOINT rHip
    {
        OFFSET  -0.100000  -0.051395   0.000000
        CHANNELS 3 Xrotation Yrotation Zrotation
        JOINT rKnee
        {
            OFFSET   0.000000  -0.410000   0.000000
            CHANNELS 3 Xrotation Yrotation Zrotation
            JOINT rAnkle
            {
                OFFSET   0.000000  -0.390000   0.000000
                CHANNELS 3 Xrotation Yrotation Zrotation
                JOINT rToeJoint
                {
                    OFFSET   0.000000  -0.050000   0.130000
                    CHANNELS 3 Xrotation Yrotation Zrotation
                    End Site
                    {
                        OFFSET  -0.010000   0.002000   0.060000
                    }
                }
            }
        }
    }
    JOINT lHip
    {
        OFFSET   0.100000  -0.051395   0.000000
        CHANNELS 3 Xrotation Yrotation Zrotation
        JOINT lKnee
        {
            OFFSET   0.000000  -0.410000   0.000000
            CHANNELS 3 Xrotation Yrotation Zrotation
            JOINT lAnkle
            {
                OFFSET   0.000000  -0.390000   0.000000
                CHANNELS 3 Xrotation Yrotation Zrotation
                JOINT lToeJoint
                {
                    OFFSET   0.000000  -0.050000   0.130000
                    CHANNELS 3 Xrotation Yrotation Zrotation
                    End Site
                    {
                        OFFSET   0.010000   0.002000   0.060000
                    }
                }
            }
        }
    }
}
MOTION
Frames: 12
Frame Time:   0.008333
 -2.376719   0.925631   3.975860   0.000000   0.000000   0.000000   0.000000   0.000000   0.000000   0.000000   0.000000   0.000000   0.000000   0.000000   0.000000   0.000000   0.000000   0.000000   0.000000   0.000000   0.000000   0.000000   0.000000   0.000000   0.000000   0.000000   0.000000   0.000000   0.000000   0.000000   0.000000   0.000000   0.000000   0.000000   0.000000   0.000000   0.000000   0.000000   0.000000   0.000000   0.000000   0.000000   0.000000   0.000000   0.000000   0.000000   0.000000   0.000000   0.000000   0.000000   0.000000   0.000000   0.000000   0.000000   0.000000   0.000000   0.000000   0.000000   0.000000   0.000000   0.000000   0.000000   0.000000
 -2.376707   0.925887   3.975337  -0.049421   0.090873  -0.012380   0.028693   0.055212  -0.019404   0.292306  -0.185810   0.009022  -0.157701   0.082174   0.093165   0.184094  -0.163253   0.287580   0.427358   0.053754   1.728558   0.007050   0.404683  -0.003133   0.291162  -0.069980  -2.295966  -0.004840   0.123387  -0.503941   0.373093   0.121886  -1.215080   0.008450  -0.554788   0.003129   0.342169  -0.008422   2.112111  -0.444805   0.186860  -0.243709   1.418981   0.003219   0.003387  -1.274366  -0.178455  -0.025250  -0.191451  -0.000464  -0.000170  -0.509417  -0.199419   0.260899   1.607198  -0.003525  -0.001455  -1.190599   0.132134  -0.020681   0.240481  -0.000478   0.000048
 -2.376679   0.926282   3.974885  -0.172882   0.205925  -0.036893   0.101446   0.101744  -0.032261   0.657807  -0.379030   0.036289  -0.278115   0.160035   0.181910   0.365819  -0.333449   1.195869   0.829377   0.111505   3.841378   0.015830   0.790664  -0.005521   0.607621  -0.045999  -3.943980  -0.001120   0.245491  -1.574647   0.727588   0.223768  -2.808042   0.019252  -1.086730   0.005650   0.705929  -0.152649   3.670612  -0.827414   0.371470  -0.689376   2.908085   0.008927   0.006240  -2.462932  -0.347567  -0.053874  -0.416394  -0.001347  -0.000397  -0.942251  -0.390919   0.732279   3.295974  -0.009542  -0.001833  -2.296829   0.259636  -0.036057   0.435169  -0.001122   0.000139
 -2.376617   0.926463   3.974521  -0.297760   0.331585  -0.068288   0.174743   0.139573  -0.033530   1.019335  -0.566748   0.078600  -0.380221   0.232627   0.262531   0.539062  -0.493968   2.487162   1.202108   0.177088   6.143939   0.024037   1.150112  -0.007052   0.915377  -0.004286  -4.871973   0.005522   0.357371  -2.989900   1.061554   0.304989  -4.606533   0.029467  -1.585189   0.007350   1.060476  -0.326118   4.562968  -1.179479   0.544502  -1.304883   4.322291   0.015505   0.007861  -3.570811  -0.507831  -0.085227  -0.623337  -0.002302  -0.000567  -1.324692  -0.569582   1.368281   4.903004  -0.016266  -0.001208  -3.327325   0.382056  -0.046690   0.615139  -0.001840   0.000258
 -2.376521   0.926182   3.974237  -0.409236   0.461154  -0.103481   0.242489   0.170747  -0.022536   1.358965  -0.746508   0.133519  -0.472896   0.300315   0.336607   0.704309  -0.641380   3.996635   1.547031   0.252749   8.518568   0.030757   1.485172  -0.007917   1.211143   0.044475  -5.268858   0.014262   0.459630  -4.595871   1.376284   0.366722  -6.498627   0.037835  -2.051331   0.008375   1.401634  -0.507612   4.956666  -1.511024   0.708502  -2.058848   5.644083   0.021950   0.008390  -4.605161  -0.659410  -0.118643  -0.817154  -0.003235  -0.000686  -1.668795  -0.738848   2.132712   6.409373  -0.022713   0.000059  -4.289235   0.498955  -0.053274   0.776281  -0.002499   0.000377
 -2.376396   0.925263   3.974027  -0.506103   0.590450  -0.140589   0.303846   0.196678  -0.000118   1.674345  -0.917463   0.199016  -0.558466   0.363430   0.405384   0.861897  -0.776290   5.613114   1.865642   0.337481  10.887810   0.035701   1.797726  -0.008288   1.494623   0.098700  -5.307724   0.024721   0.554430  -6.287658   1.672686   0.411643  -8.408704   0.043936  -2.486847   0.008882   1.728393  -0.691444   5.013724  -1.823711   0.866254  -2.922133   6.876255   0.027695   0.008095  -5.571082  -0.802348  -0.153482  -0.998328  -0.004071  -0.000760  -1.978815  -0.901466   2.995673   7.818107  -0.028371   0.001665  -5.187369   0.610043  -0.056446   0.920442  -0.003044   0.000481
 -2.376250   0.923583   3.973886  -0.589908   0.716618  -0.178379   0.358841   0.218295   0.032316   1.966461  -1.079385   0.273247  -0.637710   0.422284   0.469684   1.012189  -0.900745   7.262177   2.159525   0.428746  13.201904   0.038899   2.089165  -0.008301   1.765846   0.156457  -5.116310   0.036779   0.644140  -7.994719   1.951508   0.443074 -10.287023   0.047799  -2.893338   0.009002   2.040490  -0.874251   4.855784  -2.117714   1.019779  -3.868566   8.024681   0.032448   0.007237  -6.473061  -0.936759  -0.189185  -1.166711  -0.004760  -0.000797  -2.257156  -1.059191   3.931840   9.135385  -0.032998   0.003380  -6.025905   0.715194  -0.056769   1.050150  -0.003461   0.000564
 -2.376059   0.920589   3.973404  -0.539768   0.712681  -0.238521   0.461328   0.276907   0.133953   2.070123  -1.192906   0.314921  -0.830309   0.445115   0.491119   1.171805  -0.927164   8.455868   2.518246   0.596839  15.196083   0.034140   2.193553  -0.007310   2.024891   0.266447  -4.040544   0.125035   0.723466  -9.077984   2.170357   0.470173 -12.139766   0.043347  -3.095325   0.008137   2.332118  -1.176109   3.914819  -2.675711   0.994086  -4.761502   9.307591   0.036638   0.002765  -7.043378  -1.068460  -0.081747  -1.224860  -0.004245  -0.000539  -2.508075  -1.049511   4.853485   9.711849  -0.030642   0.003845  -6.608441   0.945234  -0.078760   1.289708  -0.004506   0.001134
 -2.375853   0.916464   3.972767  -0.468565   0.723860  -0.301329   0.590759   0.323280   0.245157   2.160058  -1.294583   0.360807  -1.026303   0.462824   0.509902   1.314286  -0.928242   9.370911   2.844304   0.772088  16.914747   0.029642   2.289848  -0.006461   2.270925   0.346895  -3.100677   0.205294   0.788427  -9.891152   2.373791   0.493086 -13.735422   0.038442  -3.278097   0.007352   2.603450  -1.427854   3.078627  -3.233467   0.964297  -5.611349  10.508718   0.038747  -0.000777  -7.570131  -1.194978   0.016852  -1.246446  -0.003552  -0.000395  -2.793734  -1.045205   5.730912  10.140522  -0.027483   0.003964  -7.157466   1.161560  -0.096350   1.507551  -0.005094   0.001534
 -2.375560   0.915204   3.972257  -0.496191   0.600808   0.064151   0.795342   0.424727   0.013167   2.303182  -1.346344   0.262704  -1.204442   0.480358   0.518676   1.432591  -0.886364  10.366249   3.134627   0.971767  18.544215   0.025981   2.385827  -0.005764   2.506526   0.425962  -2.406602   0.277853   0.847450 -10.717866   2.562091   0.512661 -15.197428   0.034058  -3.442981   0.006659   2.858097  -1.618630   2.524472  -3.665438   0.964836  -6.781322  11.603769   0.038322  -0.004639  -8.050396  -1.315457   0.105805  -1.182675  -0.002433  -0.000506  -3.248149  -1.013957   5.364116  11.080411  -0.022020   0.003080  -7.529666   1.215656  -0.616178   1.168488  -0.005606   0.001247
 -2.376001   0.914486   3.971971  -0.510967   0.402564   0.137293   0.960157   0.545717   0.009984   2.436031  -1.364041   0.247277  -1.362125   0.497042   0.524875   1.539694  -0.842076  11.176683   3.398798   1.170828  20.020590   0.022765   2.480639  -0.005128   2.734661   0.538823  -1.719017   0.354281   0.924903 -11.402480   2.742586   0.541674 -16.541254   0.029899  -3.594338   0.005980   3.100979  -1.796750   1.967650  -4.093993   0.957484  -7.485749  12.627433   0.035780  -0.007880  -8.503425  -1.427281   0.188840  -1.156194  -0.001816  -0.000499  -3.578296  -0.988457   5.322968  11.828821  -0.017930   0.001849  -7.910364   1.355958  -0.742116   0.973204  -0.004645   0.000979
 -2.376910   0.913961   3.971809  -0.504158   0.202290   0.106068   1.100729   0.656210   0.056883   2.548969  -1.375704   0.275740  -1.511396   0.511943   0.537984   1.639058  -0.804193  11.851134   3.641056   1.358336  21.346318   0.019832   2.569056  -0.004532   2.951839   0.654864  -1.122549   0.429557   1.007254 -11.954457   2.913137   0.575154 -17.740925   0.026016  -3.732672   0.005335   3.331475  -1.954686   1.496992  -4.513440   0.942494  -7.996018  13.585530   0.032580  -0.010099  -8.928945  -1.530002   0.267286  -1.151359  -0.001433  -0.000416  -3.860384  -0.969976   5.418580  12.458613  -0.014803   0.000911  -8.254051   1.503587  -0.807800   0.834423  -0.003717   0.000770
